<svg viewBox="0 0 3332 1461" fill="none">
<mask id="mask0_274_2651" style="mask-type:luminance" maskUnits="userSpaceOnUse" x="2367" y="0" width="552" height="552">
<path d="M2367 0H2919V552H2367V0Z" fill="white"/>
</mask>
<g mask="url(#mask0_274_2651)">
<path d="M2367 276L2464.3 246.808C2473.11 244.173 2481.71 240.998 2490.12 237.292C2498.54 233.586 2506.68 229.379 2514.58 224.669C2522.47 219.96 2530.04 214.779 2537.29 209.126C2544.55 203.481 2551.42 197.402 2557.92 190.903C2564.42 184.404 2570.5 177.531 2576.14 170.276C2581.79 163.029 2586.97 155.452 2591.68 147.561C2596.4 139.67 2600.61 131.516 2604.31 123.108C2608.01 114.693 2611.19 106.083 2613.82 97.2783L2643 0L2672.19 97.3232C2674.83 106.128 2678 114.73 2681.71 123.146C2685.41 131.554 2689.61 139.707 2694.33 147.598C2699.04 155.49 2704.22 163.059 2709.87 170.306C2715.52 177.554 2721.59 184.434 2728.09 190.933C2734.59 197.432 2741.46 203.504 2748.72 209.149C2755.96 214.801 2763.53 219.975 2771.42 224.692C2779.32 229.401 2787.46 233.609 2795.88 237.315C2804.28 241.021 2812.89 244.188 2821.7 246.831L2919 276L2821.71 305.192C2812.92 307.835 2804.31 311.002 2795.9 314.708C2787.48 318.414 2779.34 322.621 2771.45 327.331C2763.56 332.048 2755.99 337.229 2748.73 342.874C2741.48 348.519 2734.61 354.598 2728.11 361.097C2721.61 367.596 2715.54 374.469 2709.89 381.716C2704.24 388.964 2699.06 396.54 2694.35 404.424C2689.64 412.315 2685.43 420.469 2681.72 428.877C2678.02 437.292 2674.85 445.895 2672.21 454.699L2643 552L2613.81 454.722C2611.17 445.917 2607.99 437.314 2604.29 428.899C2600.59 420.491 2596.38 412.338 2591.66 404.447C2586.95 396.555 2581.77 388.986 2576.13 381.739C2570.47 374.491 2564.4 367.618 2557.9 361.119C2551.4 354.621 2544.53 348.541 2537.28 342.896C2530.03 337.243 2522.46 332.07 2514.57 327.353C2506.68 322.644 2498.53 318.436 2490.12 314.73C2481.71 311.024 2473.1 307.857 2464.3 305.214L2367 276Z" fill="white"/>
</g>
<path d="M253.313 1203.92L0 585.931H208.983L369.837 1076.02H292.576L457.23 585.931H666.212L402.767 1203.92H253.313ZM94.9923 1461L279.911 1062.09L402.767 1203.92L293.843 1461H94.9923ZM1020.38 1215.32C953.67 1215.32 894.141 1201.81 841.79 1174.8C790.283 1146.94 749.753 1108.52 720.2 1059.56C690.647 1010.59 675.87 955.292 675.87 893.662C675.87 832.031 690.225 777.155 718.933 729.032C748.486 680.066 788.172 641.652 837.99 613.792C887.808 585.931 943.959 572.001 1006.44 572.001C1067.24 572.001 1120.86 585.087 1167.3 611.259C1213.74 637.431 1250.05 673.734 1276.22 720.168C1303.24 766.602 1316.75 819.789 1316.75 879.731C1316.75 890.707 1315.91 902.526 1314.22 915.19C1313.37 927.01 1311.26 940.94 1307.89 956.981L777.195 958.247V825.277L1225.56 824.011L1141.97 879.731C1141.12 844.273 1135.63 815.146 1125.5 792.351C1115.37 768.712 1100.17 750.983 1079.9 739.163C1060.48 726.499 1036.42 720.168 1007.71 720.168C977.312 720.168 950.714 727.344 927.916 741.696C905.962 755.204 888.653 774.622 875.987 799.95C864.166 825.277 858.255 856.092 858.255 892.395C858.255 928.698 864.588 959.936 877.254 986.107C890.764 1011.43 909.34 1031.27 932.982 1045.63C957.469 1059.14 986.178 1065.89 1019.11 1065.89C1049.51 1065.89 1076.95 1060.82 1101.44 1050.69C1125.92 1039.72 1147.45 1023.68 1166.03 1002.57L1272.42 1108.95C1242.02 1144.4 1205.29 1171 1162.23 1188.73C1119.17 1206.46 1071.88 1215.32 1020.38 1215.32ZM1634.47 1216.59C1598.16 1216.59 1562.27 1211.95 1526.81 1202.66C1492.19 1193.37 1459.68 1180.29 1429.29 1163.4C1399.73 1145.67 1374.4 1125.41 1353.29 1102.61L1463.48 991.173C1483.75 1013.12 1507.81 1030.43 1535.68 1043.09C1563.54 1054.91 1593.94 1060.82 1626.87 1060.82C1649.67 1060.82 1666.98 1057.45 1678.8 1050.69C1691.46 1043.94 1697.8 1034.65 1697.8 1022.83C1697.8 1007.64 1690.2 996.238 1675 988.64C1660.64 980.198 1642.07 973.021 1619.27 967.112C1596.47 960.358 1572.41 953.182 1547.08 945.583C1521.74 937.985 1497.68 927.432 1474.88 913.924C1452.08 900.416 1433.51 881.842 1419.15 858.203C1404.8 833.72 1397.62 802.904 1397.62 765.757C1397.62 726.077 1407.75 691.885 1428.02 663.18C1448.28 633.632 1476.99 610.415 1514.15 593.53C1551.3 576.644 1594.78 568.202 1644.6 568.202C1696.95 568.202 1745.08 577.489 1788.99 596.062C1833.74 613.792 1870.05 640.386 1897.91 675.844L1787.72 787.286C1768.3 764.491 1746.35 748.45 1721.86 739.163C1698.22 729.876 1675 725.233 1652.2 725.233C1630.25 725.233 1613.78 728.61 1602.8 735.364C1591.83 741.274 1586.34 750.139 1586.34 761.958C1586.34 774.622 1593.52 784.753 1607.87 792.351C1622.23 799.95 1640.8 806.704 1663.6 812.613C1686.4 818.523 1710.46 825.699 1735.79 834.142C1761.12 842.584 1785.19 853.982 1807.99 868.334C1830.79 882.686 1849.36 902.104 1863.72 926.588C1878.07 950.227 1885.25 981.464 1885.25 1020.3C1885.25 1080.24 1862.45 1127.94 1816.85 1163.4C1772.1 1198.86 1711.31 1216.59 1634.47 1216.59ZM2396.96 1201.39V850.605C2396.96 818.523 2386.83 792.773 2366.56 773.356C2347.14 753.093 2322.22 742.962 2291.82 742.962C2270.72 742.962 2252.14 747.606 2236.1 756.893C2220.05 765.335 2207.39 777.999 2198.1 794.884C2188.81 810.925 2184.17 829.498 2184.17 850.605L2109.44 813.88C2109.44 765.757 2119.57 723.545 2139.84 687.242C2160.1 650.939 2188.39 623.078 2224.7 603.661C2261.01 583.398 2302.8 573.267 2350.08 573.267C2398.21 573.267 2440.43 583.398 2476.74 603.661C2513.05 623.078 2540.91 650.517 2560.33 685.975C2580.6 720.59 2590.73 761.114 2590.73 807.548V1201.39H2396.96ZM1990.38 1201.39V282H2184.17V1201.39H1990.38ZM2972.3 1214.06C2915.72 1214.06 2865.06 1200.13 2820.31 1172.27C2776.4 1144.4 2741.37 1106.41 2715.2 1058.29C2689.86 1010.17 2677.2 955.292 2677.2 893.662C2677.2 832.031 2689.86 777.155 2715.2 729.032C2741.37 680.91 2776.4 642.918 2820.31 615.058C2865.06 587.198 2915.72 573.267 2972.3 573.267C3013.67 573.267 3050.82 581.288 3083.75 597.329C3117.53 613.37 3144.98 635.742 3166.09 664.447C3187.2 692.307 3199.02 724.389 3201.56 760.692V1026.63C3199.02 1062.93 3187.2 1095.44 3166.09 1124.14C3145.83 1152 3118.81 1173.95 3085.03 1189.99C3051.26 1206.04 3013.67 1214.06 2972.3 1214.06ZM3011.57 1039.3C3052.95 1039.3 3086.29 1025.79 3111.62 998.771C3136.95 970.911 3149.62 935.874 3149.62 893.662C3149.62 864.957 3143.7 839.629 3131.88 817.679C3120.91 795.728 3104.86 778.843 3083.75 767.024C3063.49 754.36 3039.85 748.028 3012.83 748.028C2985.81 748.028 2961.75 754.36 2940.64 767.024C2920.38 778.843 2903.9 795.728 2891.24 817.679C2879.42 839.629 2873.5 864.957 2873.5 893.662C2873.5 921.522 2879.42 946.427 2891.24 968.378C2903.06 990.329 2919.53 1007.64 2940.64 1020.3C2961.75 1032.96 2985.4 1039.3 3011.57 1039.3ZM3142.02 1201.39V1035.5L3171.16 886.063L3142.02 736.631V585.931H3332V1201.39H3142.02Z" fill="white"/>
</svg>
