<svg width="4946" height="1210" viewBox="0 0 4946 1210" fill="none" xmlns="http://www.w3.org/2000/svg">
<g clip-path="url(#clip0_522_7368)">
<path d="M887.678 592C887.678 710.214 887.678 827.428 887.678 945.187C833.761 945.187 780.899 945.187 726.814 945.187C726.657 941.695 726.363 938.184 726.363 934.674C726.344 810.36 726.383 686.045 726.284 561.731C726.278 553.771 725.541 545.775 724.607 537.859C720.902 506.48 688.711 470.219 644.376 470.209C606.049 470.2 567.723 470.072 529.396 470.016C528.091 470.015 526.785 470.236 524.12 470.476C523.719 482.65 523.98 494.843 523.934 507.019C523.888 519.017 523.924 531.015 523.924 543.013C523.924 555.345 523.924 567.676 523.924 580.008C523.924 592.006 523.924 604.004 523.924 616.002C523.924 628.334 523.924 640.665 523.924 652.997C523.924 664.995 523.924 676.993 523.924 688.991C523.924 701.323 523.924 713.654 523.924 725.985C523.924 737.984 523.924 749.982 523.924 761.98C523.924 774.312 523.924 786.643 523.924 798.974C523.924 810.973 523.924 822.971 523.924 834.969C523.924 847.3 523.924 859.632 523.924 871.963C523.924 883.962 523.924 895.96 523.924 907.958C523.924 920.188 523.924 932.418 523.924 945.182C469.972 945.182 417.123 945.182 363.226 945.182C363.226 787.211 363.226 629.38 363.226 471.844C355.213 469.61 179.3 468.82 160.339 470.807C160.172 502.14 160.288 533.655 160.267 565.168C160.246 596.83 160.262 628.492 160.262 660.154C160.262 691.483 160.262 722.811 160.262 754.14C160.262 785.802 160.262 817.463 160.262 849.125C160.262 880.763 160.262 912.402 160.262 943.855C152.968 946.121 16.3735 946.924 -0.0117188 944.919C-0.0117188 743.179 -0.0117188 541.385 -0.0117188 338.876C3.88141 338.876 7.16275 338.876 10.4441 338.876C227.078 338.876 443.712 338.835 660.346 338.931C686.342 338.942 712.267 340.048 737.905 345.323C769.633 351.85 797.968 365.165 821.964 386.876C853.856 415.732 877.465 449.778 884.672 493.235C886.302 503.058 887.356 513.073 887.541 523.02C887.96 545.673 887.676 568.339 887.678 592Z" fill="#191919"/>
<path d="M1466.49 1150.49C1426.33 1187.51 1379.19 1206.55 1325.68 1208.29C1278.73 1209.82 1231.71 1209.31 1184.72 1209.5C1144.73 1209.67 1104.73 1209.54 1064.74 1209.54C1061.15 1209.54 1057.57 1209.54 1053.56 1209.54C1051.92 1202.38 1053.25 1196.12 1054.19 1190.04C1062.26 1137.46 1104.56 1094.94 1157.18 1086.78C1166.35 1085.36 1175.79 1085.42 1185.11 1085.31C1218.09 1084.92 1251.11 1085.44 1284.06 1084.31C1313.93 1083.29 1337.92 1068.53 1358.55 1047.95C1366.38 1040.13 1370.54 1029.82 1371.06 1019.12C1371.99 1000.25 1371.32 981.298 1371.32 960.988C1367.34 960.988 1363.81 960.988 1360.29 960.988C1299.96 960.988 1239.63 961.029 1179.31 960.968C1152.29 960.94 1125.32 960.172 1098.77 954.362C1076.08 949.399 1054.89 940.978 1035.76 927.614C1012.18 911.15 993.2 890.344 977.758 866.255C962.656 842.695 955.704 816.477 953.812 788.825C953.199 779.864 953.511 770.836 953.481 761.838C953.042 630.854 952.564 499.869 952.326 368.884C952.313 361.355 953.388 353.55 955.567 346.361C958.14 337.868 964.684 337.182 970.408 343.982C971.683 345.498 972.701 347.25 973.706 348.971C1005.68 403.707 1049.93 445.311 1106.75 473.508C1108.24 474.247 1109.71 475.016 1111.16 475.835C1111.73 476.158 1112.2 476.657 1113.47 477.686C1113.47 480.697 1113.47 484.318 1113.47 487.938C1113.46 572.929 1113.55 657.919 1113.4 742.91C1113.35 773.046 1124.97 797.146 1149.13 815.165C1158.95 822.492 1170.01 826.966 1182.14 828.394C1190.4 829.366 1198.74 830.074 1207.05 830.098C1259.04 830.251 1311.04 830.184 1363.03 830.16C1365.62 830.159 1368.21 829.887 1371.48 829.703C1371.48 711.987 1371.48 594.781 1371.48 477.356C1374.48 475.656 1376.97 474.097 1379.58 472.792C1435.69 444.759 1479.34 403.451 1511.11 349.464C1513.96 344.618 1516.55 338.406 1523.48 339.863C1530.11 341.256 1530.88 347.953 1531.77 353.415C1532.73 359.295 1532.95 365.345 1532.95 371.32C1533.01 566.965 1532.93 762.61 1533.09 958.255C1533.11 980.26 1533.38 1002.18 1530.46 1024.09C1523.87 1073.48 1503.12 1115.58 1466.49 1150.49Z" fill="#191919"/>
<path d="M2063.34 953.445C2025.51 965.311 1987.56 971.414 1948.7 972.789C1901.77 974.45 1855.43 970.854 1810.13 958.267C1752.56 942.269 1702.84 913.389 1664.64 866.506C1637.87 833.648 1620.48 796.123 1610.4 755.172C1590.73 675.306 1592.23 595.879 1618.66 517.815C1644.95 440.195 1697.07 386.028 1772.78 354.659C1813.23 337.901 1855.58 330.126 1899.14 327.796C1933.52 325.956 1967.74 326.918 2001.79 332.134C2052.84 339.958 2100.63 356.384 2142.9 386.848C2192.56 422.636 2225.38 470.469 2242.72 528.864C2268.02 614.051 2267.44 699.268 2238.69 783.386C2212.05 861.321 2158.96 915.089 2082.75 946.091C2076.59 948.599 2070.3 950.797 2063.34 953.445ZM1804.66 790.233C1822.79 813.91 1846.64 828.819 1875.39 836.029C1907.92 844.185 1940.71 844.483 1973.51 838.096C2003.15 832.327 2028.99 819.227 2048.61 795.762C2064.01 777.342 2074.26 756.063 2079.82 732.743C2090.7 687.13 2091.6 641.037 2085.21 594.733C2081.62 568.781 2074.37 544.056 2060.69 521.365C2044.09 493.818 2020.33 475.688 1989.86 466.193C1957.05 455.971 1923.5 455.476 1889.96 460.816C1859.98 465.59 1833.15 477.708 1812.41 500.772C1794.91 520.25 1783.82 543.261 1777.82 568.592C1767.42 612.554 1766.72 657.036 1772.18 701.694C1776.02 733.2 1785.18 762.872 1804.66 790.233Z" fill="#191919"/>
<path d="M1312.88 414.973C1200.11 453.196 1078.22 394.93 1040.33 280.318C1003.66 169.39 1062.17 48.385 1176.68 10.7453C1288.05 -25.86 1408.16 33.806 1445.52 146.976C1482.19 258.053 1422.93 376.297 1312.88 414.973Z" fill="#191919"/>
<path d="M2597.8 929.93C2506.54 882.944 2451.46 808.809 2430.16 709.963C2413.26 631.541 2423.95 555.88 2462.02 485.231C2495.76 422.609 2545.24 375.751 2611.13 347.509C2640.08 335.104 2670.39 327.993 2701.97 325.711C2736.59 323.21 2770.62 325.957 2803.86 335.578C2883.28 358.569 2942.84 406.943 2983.4 478.72C2990.74 491.714 2996.3 505.72 3002.59 519.299C3003.53 521.325 3004 523.57 3004.99 526.65C2993.05 526.65 2981.97 526.65 2970.49 526.65C2969 523.431 2967.49 520.123 2965.95 516.83C2929.9 439.705 2872.49 386.041 2789.17 365.84C2684.98 340.577 2596.09 370.346 2525.5 450.959C2472.32 511.681 2450.47 583.997 2456.45 663.787C2463.07 752.182 2501.49 824.707 2573.55 877.505C2626.53 916.323 2686.56 931.837 2751.88 924.605C2825.33 916.474 2883.62 880.823 2929.4 823.773C2944.88 804.48 2957.51 783.317 2967.41 760.592C2968.07 759.091 2968.89 757.662 2969.79 755.889C2980.79 755.889 2991.69 755.889 3003.33 755.889C3003.14 757.606 3003.31 759.235 3002.76 760.568C2963.9 855.287 2897.59 920.893 2797.99 948.836C2729.67 968.003 2662.72 960.772 2597.8 929.93Z" fill="#161616"/>
<path d="M4393.6 780.628C4354.46 690.382 4351.7 599.673 4390.84 510.263C4432.2 415.794 4503.08 352.235 4605.38 331.206C4706.93 310.329 4796.68 337.767 4871.93 409.819C4903.98 440.5 4926.66 477.513 4943.07 518.53C4944.02 520.905 4944.75 523.368 4945.9 526.716C4933.74 526.716 4922.63 526.716 4911.15 526.716C4909.49 523.066 4907.88 519.449 4906.2 515.866C4872.01 443.033 4818.21 390.759 4740.36 368.71C4635.22 338.934 4544.21 366.123 4469.97 446.403C4428.89 490.824 4404.97 544.194 4398.68 604.026C4386.96 715.5 4423.25 808.367 4513.56 876.832C4566.17 916.727 4626.91 931.884 4692.61 924.593C4766.44 916.398 4824.89 880.437 4870.71 822.936C4885.71 804.114 4898.01 783.532 4907.69 761.444C4908.48 759.641 4909.44 757.911 4910.46 755.87C4921.48 755.87 4932.35 755.87 4944.03 755.87C4943.67 758.118 4943.73 760.089 4943.03 761.738C4898.29 867.536 4822.12 936.613 4707.18 955.275C4618.29 969.707 4538.92 944.084 4471.06 884.752C4438.05 855.892 4412.69 820.967 4393.6 780.628Z" fill="#161616"/>
<path d="M4056.78 513.894C4047.06 440.41 4008.04 389.954 3939.09 366.522C3836.61 331.691 3731.35 397.35 3714.49 504.32C3712.95 514.138 3712.73 524.243 3712.72 534.216C3712.61 667.849 3712.65 801.483 3712.65 935.116C3712.65 939.081 3712.65 943.045 3712.65 947.686C3701.87 947.686 3691.71 947.686 3680.72 947.686C3680.52 945.43 3680.09 942.904 3680.09 940.378C3680.07 802.412 3679.73 664.446 3680.2 526.482C3680.54 425.768 3757.05 339.647 3856.7 326.446C3966.96 311.837 4067.58 385.395 4087.13 495.154C4088.87 504.945 4089.74 515.023 4089.76 524.97C4089.93 663.934 4089.88 802.9 4089.89 941.865C4089.89 943.499 4089.89 945.133 4089.89 948.058C4079.12 948.587 4068.75 948.497 4057.54 948.051C4057.54 943.84 4057.54 940.255 4057.54 936.669C4057.54 802.703 4057.55 668.737 4057.51 534.77C4057.51 528.114 4057.12 521.457 4056.78 513.894Z" fill="#161616"/>
<path d="M3246.73 947.441C3218.61 944.351 3192.92 936.689 3169.82 921.773C3129.1 895.476 3106.01 857.524 3097.95 810.209C3096.06 799.104 3095.2 787.693 3095.19 776.421C3095 634.165 3095.06 491.909 3095.06 349.654C3095.06 346.703 3095.06 343.752 3095.06 340.219C3105.98 340.219 3116.14 340.219 3127.62 340.219C3127.62 344.186 3127.62 348.049 3127.62 351.913C3127.62 492.836 3127.66 633.759 3127.55 774.682C3127.53 790.813 3129.3 806.624 3134.04 821.99C3148.35 868.363 3179.07 897.81 3225.89 910.641C3241.81 915.003 3258.07 915.905 3274.38 915.959C3324.35 916.121 3374.33 916.018 3424.3 916.018C3427.89 916.018 3431.47 916.018 3435.61 916.018C3435.61 926.882 3435.61 936.76 3435.61 947.251C3434.55 947.535 3433.04 948.297 3431.52 948.295C3371.89 948.209 3312.26 948.057 3252.63 947.895C3250.97 947.89 3249.31 947.683 3246.73 947.441Z" fill="#161616"/>
<path d="M4261.19 742.001C4261.19 810.956 4261.19 878.911 4261.19 948.054C4250.39 948.828 4239.93 948.193 4228.91 948.441C4228.91 745.292 4228.91 542.944 4228.91 340.076C4239.59 340.076 4249.77 340.076 4261.19 340.076C4261.19 474.032 4261.19 607.516 4261.19 742.001Z" fill="#161616"/>
<path d="M3540.7 774.002C3540.7 832.283 3540.7 889.563 3540.7 947.606C3529.77 947.606 3519.41 947.606 3508.56 947.606C3508.56 745.194 3508.56 543.107 3508.56 340.324C3519.15 340.324 3529.28 340.324 3540.7 340.324C3540.7 484.666 3540.7 628.834 3540.7 774.002Z" fill="#161616"/>
</g>
<defs>
<clipPath id="clip0_522_7368">
<rect width="4946" height="1210" fill="white"/>
</clipPath>
</defs>
</svg>
